<svg width="88" height="27" viewBox="0 0 88 27" fill="none" xmlns="http://www.w3.org/2000/svg">
<path d="M18.408 21.2H8.008L6.024 26H0.712L10.696 3.6H15.816L25.832 26H20.392L18.408 21.2ZM16.776 17.264L13.224 8.688L9.672 17.264H16.776ZM27.804 8.784H32.796V26H27.804V8.784ZM30.3 6.384C29.3827 6.384 28.636 6.11733 28.06 5.584C27.484 5.05067 27.196 4.38933 27.196 3.6C27.196 2.81067 27.484 2.14933 28.06 1.616C28.636 1.08267 29.3827 0.815998 30.3 0.815998C31.2173 0.815998 31.964 1.072 32.54 1.584C33.116 2.096 33.404 2.736 33.404 3.504C33.404 4.336 33.116 5.02933 32.54 5.584C31.964 6.11733 31.2173 6.384 30.3 6.384ZM48.533 25.168C48.0423 25.5307 47.4343 25.808 46.709 26C46.005 26.1707 45.2583 26.256 44.469 26.256C42.421 26.256 40.8317 25.7333 39.701 24.688C38.5917 23.6427 38.037 22.1067 38.037 20.08V13.008H35.381V9.168H38.037V4.976H43.029V9.168H47.317V13.008H43.029V20.016C43.029 20.7413 43.2103 21.3067 43.573 21.712C43.957 22.096 44.4903 22.288 45.173 22.288C45.9623 22.288 46.6343 22.0747 47.189 21.648L48.533 25.168ZM58.996 26.256C57.1827 26.256 55.5507 25.8827 54.1 25.136C52.6707 24.368 51.5507 23.312 50.74 21.968C49.9293 20.624 49.524 19.0987 49.524 17.392C49.524 15.6853 49.9293 14.16 50.74 12.816C51.5507 11.472 52.6707 10.4267 54.1 9.68C55.5507 8.912 57.1827 8.528 58.996 8.528C60.8093 8.528 62.4307 8.912 63.86 9.68C65.2893 10.4267 66.4093 11.472 67.22 12.816C68.0307 14.16 68.436 15.6853 68.436 17.392C68.436 19.0987 68.0307 20.624 67.22 21.968C66.4093 23.312 65.2893 24.368 63.86 25.136C62.4307 25.8827 60.8093 26.256 58.996 26.256ZM58.996 22.16C60.276 22.16 61.3213 21.7333 62.132 20.88C62.964 20.0053 63.38 18.8427 63.38 17.392C63.38 15.9413 62.964 14.7893 62.132 13.936C61.3213 13.0613 60.276 12.624 58.996 12.624C57.716 12.624 56.66 13.0613 55.828 13.936C54.996 14.7893 54.58 15.9413 54.58 17.392C54.58 18.8427 54.996 20.0053 55.828 20.88C56.66 21.7333 57.716 22.16 58.996 22.16ZM80.0928 26.256C78.2581 26.256 76.6048 25.8827 75.1328 25.136C73.6821 24.368 72.5408 23.312 71.7088 21.968C70.8981 20.624 70.4928 19.0987 70.4928 17.392C70.4928 15.6853 70.8981 14.16 71.7088 12.816C72.5408 11.472 73.6821 10.4267 75.1328 9.68C76.6048 8.912 78.2581 8.528 80.0928 8.528C81.9061 8.528 83.4848 8.912 84.8288 9.68C86.1941 10.4267 87.1861 11.504 87.8048 12.912L83.9328 14.992C83.0368 13.4133 81.7461 12.624 80.0608 12.624C78.7594 12.624 77.6821 13.0507 76.8288 13.904C75.9754 14.7573 75.5488 15.92 75.5488 17.392C75.5488 18.864 75.9754 20.0267 76.8288 20.88C77.6821 21.7333 78.7594 22.16 80.0608 22.16C81.7674 22.16 83.0581 21.3707 83.9328 19.792L87.8048 21.904C87.1861 23.2693 86.1941 24.336 84.8288 25.104C83.4848 25.872 81.9061 26.256 80.0928 26.256Z" fill="white"/>
</svg>
