<svg width="123" height="83" viewBox="0 0 123 83" fill="none" xmlns="http://www.w3.org/2000/svg">
<path d="M72.5593 47.2337C72.5593 45.0245 70.7685 43.2337 68.5593 43.2337C66.3502 43.2337 64.5593 45.0245 64.5593 47.2337H72.5593ZM68.5593 47.2337L65.9945 50.3032L67.33 51.4191L69.0568 51.2026L68.5593 47.2337ZM54.2209 47.2337L53.7235 51.2026L55.4503 51.4191L56.7857 50.3032L54.2209 47.2337ZM58.2209 47.2337C58.2209 45.0245 56.4301 43.2337 54.2209 43.2337C52.0118 43.2337 50.2209 45.0245 50.2209 47.2337H58.2209ZM86.1748 9.8089C84.9685 11.6597 85.491 14.1378 87.3418 15.3441C89.1925 16.5503 91.6707 16.0279 92.8769 14.1771L86.1748 9.8089ZM91.8705 8.15579L88.4741 6.04279L88.4466 6.08701L88.4203 6.13194L91.8705 8.15579ZM114.003 50.7835C114.896 52.804 117.259 53.7178 119.279 52.8245C121.299 51.9312 122.213 49.5691 121.32 47.5486L114.003 50.7835ZM28.8211 14.1771C30.0274 16.0279 32.5056 16.5503 34.3563 15.3441C36.2071 14.1379 36.7295 11.6597 35.5233 9.80892L28.8211 14.1771ZM29.8276 8.1558L33.2778 6.13195L33.2514 6.08703L33.2239 6.0428L29.8276 8.1558ZM0.378102 47.5486C-0.515189 49.5691 0.398577 51.9312 2.41905 52.8245C4.43953 53.7178 6.80161 52.804 7.6949 50.7835L0.378102 47.5486ZM64.5593 47.2337V54.4222H72.5593V47.2337H64.5593ZM64.5593 54.4222C64.5593 61.9736 65.9171 69.0182 69.9295 74.2335C74.1034 79.6587 80.5721 82.3839 89.111 82.3839V74.3839C82.3557 74.3839 78.5485 72.3168 76.2701 69.3554C73.8303 66.1841 72.5593 61.2479 72.5593 54.4222H64.5593ZM89.111 82.3839C99.5515 82.3839 106.945 79.0783 111.682 73.8097C116.336 68.6318 117.964 62.0683 117.964 56.3391H109.964C109.964 60.6739 108.724 65.1328 105.732 68.4613C102.821 71.6991 97.7884 74.3839 89.111 74.3839V82.3839ZM117.964 56.3391C117.964 55.0412 118.19 54.5329 118.249 54.4194C118.275 54.3706 118.265 54.3734 118.352 54.3232C118.431 54.2776 118.547 54.2212 118.779 54.1239C118.919 54.065 119.396 53.8752 119.766 53.6931C120.153 53.5019 120.91 53.0978 121.564 52.3409C122.332 51.4527 122.744 50.3372 122.744 49.1506H114.744C114.744 48.4433 115.006 47.6947 115.512 47.1088C115.722 46.8658 115.921 46.7132 116.04 46.6316C116.101 46.5897 116.15 46.5607 116.18 46.5437C116.21 46.5266 116.228 46.5179 116.228 46.5176C116.229 46.5174 116.218 46.5224 116.193 46.5338C116.167 46.5453 116.133 46.5602 116.084 46.5806C115.8 46.7003 116.042 46.5965 115.684 46.7466C115.356 46.8843 114.874 47.0938 114.356 47.3926C113.248 48.0313 112.043 49.0375 111.173 50.6885C110.336 52.2747 109.964 54.1626 109.964 56.3391H117.964ZM122.744 49.1506C122.744 47.3147 121.709 46.0714 121.005 45.4388C120.276 44.7846 119.419 44.3289 118.651 43.9967C117.087 43.3202 114.985 42.7755 112.437 42.334C107.281 41.4404 99.5 40.8375 88.6331 40.8375V48.8375C99.2738 48.8375 106.548 49.4327 111.071 50.2165C113.362 50.6136 114.754 51.0273 115.475 51.3393C115.85 51.5013 115.833 51.5473 115.659 51.391C115.51 51.2564 114.744 50.5073 114.744 49.1506H122.744ZM88.6331 40.8375C81.3916 40.8375 73.2078 42.6198 68.0619 43.2647L69.0568 51.2026C75.3816 50.4099 82.0142 48.8375 88.6331 48.8375V40.8375ZM68.5593 47.2337C71.1241 44.1642 71.123 44.1633 71.1219 44.1623C71.1215 44.162 71.1204 44.161 71.1196 44.1604C71.118 44.1591 71.1164 44.1577 71.1147 44.1563C71.1114 44.1536 71.1079 44.1507 71.1041 44.1476C71.0967 44.1414 71.0885 44.1347 71.0796 44.1274C71.0617 44.1128 71.0407 44.0959 71.0168 44.0769C70.969 44.0388 70.909 43.9921 70.8373 43.938C70.6941 43.8299 70.5031 43.6917 70.267 43.5338C69.7965 43.2193 69.1369 42.8201 68.3113 42.4259C66.6703 41.6424 64.2853 40.8375 61.3901 40.8375V48.8375C62.7965 48.8375 63.9961 49.2307 64.8643 49.6452C65.2933 49.8501 65.6195 50.0499 65.8211 50.1847C65.9211 50.2515 65.9877 50.3005 66.0181 50.3235C66.0332 50.3349 66.0391 50.3396 66.0353 50.3367C66.0335 50.3352 66.0292 50.3317 66.0224 50.3262C66.019 50.3234 66.015 50.3201 66.0103 50.3163C66.008 50.3144 66.0055 50.3123 66.0029 50.3101C66.0016 50.3091 66.0002 50.3079 65.9988 50.3068C65.9981 50.3062 65.9971 50.3053 65.9967 50.305C65.9956 50.3041 65.9945 50.3032 68.5593 47.2337ZM61.3901 40.8375C58.4949 40.8375 56.11 41.6424 54.469 42.4259C53.6434 42.8201 52.9838 43.2193 52.5133 43.5338C52.2772 43.6917 52.0861 43.8299 51.9429 43.938C51.8713 43.9921 51.8113 44.0388 51.7635 44.0769C51.7395 44.0959 51.7186 44.1128 51.7007 44.1274C51.6917 44.1347 51.6836 44.1414 51.6761 44.1476C51.6724 44.1507 51.6689 44.1536 51.6656 44.1563C51.6639 44.1577 51.6623 44.1591 51.6607 44.1604C51.6599 44.161 51.6588 44.162 51.6584 44.1623C51.6573 44.1633 51.6561 44.1642 54.2209 47.2337C56.7857 50.3032 56.7846 50.3041 56.7836 50.305C56.7832 50.3053 56.7821 50.3062 56.7814 50.3068C56.78 50.3079 56.7787 50.3091 56.7774 50.3101C56.7747 50.3123 56.7723 50.3144 56.7699 50.3163C56.7653 50.3201 56.7613 50.3234 56.7579 50.3262C56.7511 50.3317 56.7468 50.3352 56.7449 50.3367C56.7412 50.3396 56.7471 50.3349 56.7622 50.3235C56.7926 50.3005 56.8592 50.2515 56.9592 50.1847C57.1608 50.0499 57.4869 49.8501 57.916 49.6452C58.7842 49.2307 59.9838 48.8375 61.3901 48.8375V40.8375ZM54.7184 43.2647C49.5725 42.6198 41.3887 40.8375 34.1472 40.8375V48.8375C40.7661 48.8375 47.3987 50.4099 53.7235 51.2026L54.7184 43.2647ZM34.1472 40.8375C23.2754 40.8375 15.5066 41.4411 10.3672 42.3C7.82504 42.7248 5.75302 43.2396 4.22156 43.8569C3.47475 44.1579 2.63982 44.5678 1.9206 45.1542C1.29067 45.6678 0.0365689 46.9115 0.0365689 48.911H8.03657C8.03657 50.4912 7.05131 51.2931 6.97588 51.3546C6.81115 51.4889 6.81636 51.4364 7.21214 51.2769C7.96586 50.9731 9.38882 50.5744 11.6859 50.1905C16.2249 49.432 23.5114 48.8375 34.1472 48.8375V40.8375ZM0.0365689 48.911C0.0365689 50.0935 0.443813 51.1832 1.16566 52.0517C1.78704 52.7994 2.50897 53.2192 2.89706 53.4267C3.2715 53.627 3.73219 53.8269 3.89358 53.9003C4.13606 54.0105 4.26682 54.077 4.36424 54.1357C4.49697 54.2155 4.5094 54.2408 4.54121 54.3003C4.5993 54.4091 4.81603 54.8856 4.81603 56.0995H12.816C12.816 53.9588 12.4353 52.0991 11.5973 50.5305C10.7329 48.9127 9.5505 47.9196 8.48836 47.2806C7.98835 46.9798 7.52168 46.7618 7.20406 46.6174C6.99541 46.5226 6.9532 46.5051 6.81496 46.4416C6.76754 46.4198 6.73327 46.4036 6.70751 46.3911C6.69503 46.385 6.68579 46.3804 6.6793 46.3771C6.6761 46.3755 6.67372 46.3742 6.67209 46.3734C6.67128 46.373 6.67067 46.3727 6.67027 46.3724C6.66986 46.3722 6.66966 46.3721 6.66966 46.3721C6.66966 46.3721 6.66987 46.3722 6.67028 46.3725C6.6707 46.3727 6.67132 46.373 6.67216 46.3735C6.67381 46.3744 6.67635 46.3758 6.67971 46.3777C6.68634 46.3815 6.69679 46.3876 6.71046 46.3959C6.7371 46.4122 6.78094 46.4403 6.83644 46.4808C6.94439 46.5596 7.1259 46.707 7.31821 46.9384C7.77868 47.4925 8.03657 48.2077 8.03657 48.911H0.0365689ZM4.81603 56.0995C4.81603 61.93 6.43404 68.5544 11.0895 73.7694C15.8283 79.0778 23.2288 82.3839 33.6692 82.3839V74.3839C24.9919 74.3839 19.9657 71.6996 17.0574 68.4418C14.0657 65.0904 12.816 60.5726 12.816 56.0995H4.81603ZM33.6692 82.3839C42.2081 82.3839 48.6769 79.6587 52.8508 74.2335C56.8632 69.0182 58.2209 61.9736 58.2209 54.4222H50.2209C50.2209 61.2479 48.95 66.1841 46.5101 69.3554C44.2318 72.3168 40.4246 74.3839 33.6692 74.3839V82.3839ZM58.2209 54.4222V47.2337H50.2209V54.4222H58.2209ZM89.5259 11.993C92.8769 14.1771 92.877 14.177 92.8771 14.1768C92.8771 14.1768 92.8772 14.1766 92.8773 14.1765C92.8774 14.1763 92.8776 14.1761 92.8778 14.1758C92.8781 14.1753 92.8785 14.1747 92.8789 14.1741C92.8798 14.1727 92.8809 14.171 92.8823 14.1689C92.885 14.1647 92.8886 14.1592 92.8931 14.1523C92.902 14.1384 92.9146 14.119 92.9306 14.0942C92.9626 14.0446 93.0084 13.9732 93.0671 13.8811C93.1846 13.697 93.3536 13.4297 93.567 13.0867C93.9936 12.4011 94.5979 11.4119 95.3207 10.1796L88.4203 6.13194C87.7363 7.29789 87.1683 8.22734 86.7743 8.86075C86.5773 9.17734 86.424 9.41966 86.3216 9.58024C86.2704 9.66053 86.232 9.72035 86.2072 9.75878C86.1948 9.77799 86.1858 9.79185 86.1804 9.80025C86.1777 9.80444 86.1758 9.80727 86.1749 9.80872C86.1744 9.80945 86.1742 9.80982 86.1742 9.80985C86.1741 9.80987 86.1742 9.8098 86.1743 9.80964C86.1744 9.80956 86.1744 9.80946 86.1745 9.80934C86.1745 9.80928 86.1746 9.80917 86.1746 9.80914C86.1747 9.80902 86.1748 9.8089 89.5259 11.993ZM95.2669 10.2688C95.6339 9.67884 95.9289 9.24934 96.1646 8.93934C96.4039 8.62463 96.5443 8.48329 96.5933 8.43849C96.6381 8.3975 96.5375 8.50091 96.2924 8.60942C96.0176 8.73108 95.6994 8.79822 95.3875 8.79822V0.798218C93.6702 0.798218 92.2799 1.54151 91.1922 2.53695C90.2224 3.42453 89.3461 4.64117 88.4741 6.04279L95.2669 10.2688ZM95.3875 8.79822C95.255 8.79822 94.9941 8.77742 94.6976 8.66589C94.4176 8.5606 94.2787 8.43921 94.287 8.44637C94.3095 8.46597 94.4468 8.59299 94.7054 8.93423C94.9602 9.27048 95.2905 9.7581 95.7114 10.4577L102.566 6.33353C101.573 4.68269 100.609 3.34232 99.536 2.40915C98.2299 1.27362 96.8315 0.798218 95.3875 0.798218V8.79822ZM95.7114 10.4577C95.7111 10.4572 95.7138 10.4616 95.7196 10.4718C95.7254 10.4819 95.7334 10.4959 95.7437 10.5143C95.7645 10.5517 95.7916 10.6014 95.8254 10.6649C95.8934 10.793 95.979 10.9589 96.0829 11.1653C96.2908 11.5785 96.5529 12.1159 96.8644 12.7675C97.4865 14.0692 98.2811 15.7751 99.1901 17.7521C101.007 21.7035 103.257 26.6889 105.454 31.5868C107.649 36.4826 109.787 41.2821 111.376 44.8582C112.17 46.6461 112.827 48.1278 113.285 49.1624C113.515 49.6797 113.694 50.0852 113.816 50.3612C113.877 50.4993 113.924 50.605 113.956 50.6761C113.971 50.7116 113.983 50.7385 113.991 50.7565C113.995 50.7655 113.998 50.7723 114 50.7768C114.001 50.7791 114.002 50.7808 114.002 50.7819C114.003 50.7824 114.003 50.7829 114.003 50.7831C114.003 50.7834 114.003 50.7835 117.662 49.1661C121.32 47.5486 121.32 47.5485 121.32 47.5482C121.32 47.5479 121.319 47.5474 121.319 47.5468C121.319 47.5457 121.318 47.5439 121.317 47.5416C121.315 47.537 121.312 47.5301 121.308 47.521C121.3 47.5028 121.288 47.4757 121.272 47.4399C121.24 47.3683 121.193 47.2622 121.132 47.1237C121.009 46.8467 120.829 46.4402 120.6 45.9218C120.14 44.8851 119.482 43.4008 118.687 41.61C117.096 38.0289 114.954 33.2203 112.753 28.3132C110.554 23.4081 108.291 18.3959 106.459 14.4104C104.696 10.5755 103.182 7.35693 102.566 6.33353L95.7114 10.4577ZM32.1722 11.993C35.5233 9.80892 35.5234 9.80904 35.5234 9.80915C35.5235 9.80919 35.5235 9.80929 35.5236 9.80936C35.5237 9.80948 35.5237 9.80958 35.5238 9.80966C35.5239 9.80982 35.5239 9.80989 35.5239 9.80987C35.5239 9.80984 35.5236 9.80946 35.5232 9.80874C35.5222 9.80729 35.5204 9.80446 35.5177 9.80026C35.5122 9.79187 35.5033 9.77801 35.4909 9.75879C35.4661 9.72036 35.4276 9.66054 35.3765 9.58026C35.2741 9.41968 35.1208 9.17736 34.9238 8.86076C34.5297 8.22736 33.9617 7.2979 33.2778 6.13195L26.3773 10.1797C27.1002 11.412 27.7045 12.4011 28.1311 13.0868C28.3444 13.4297 28.5135 13.697 28.6309 13.8812C28.6896 13.9733 28.7355 14.0446 28.7675 14.0942C28.7835 14.119 28.796 14.1384 28.805 14.1523C28.8095 14.1592 28.8131 14.1648 28.8158 14.1689C28.8171 14.171 28.8183 14.1727 28.8191 14.1741C28.8196 14.1748 28.82 14.1754 28.8203 14.1759C28.8205 14.1761 28.8206 14.1763 28.8208 14.1766C28.8208 14.1767 28.8209 14.1768 28.821 14.1769C28.8211 14.177 28.8211 14.1771 32.1722 11.993ZM33.2239 6.0428C32.3519 4.64118 31.4757 3.42455 30.5059 2.53696C29.4182 1.54152 28.0278 0.798234 26.3106 0.798234V8.79823C25.9986 8.79823 25.6804 8.73109 25.4057 8.60944C25.1606 8.50093 25.06 8.39752 25.1048 8.43851C25.1537 8.4833 25.2942 8.62464 25.5335 8.93935C25.7692 9.24936 26.0642 9.67886 26.4312 10.2688L33.2239 6.0428ZM26.3106 0.798234C24.8666 0.798234 23.4681 1.27364 22.1621 2.40917C21.0888 3.34233 20.1249 4.6827 19.1317 6.33355L25.9867 10.4577C26.4076 9.75812 26.7379 9.2705 26.9927 8.93425C27.2513 8.593 27.3885 8.46599 27.4111 8.44639C27.4193 8.43923 27.2805 8.56062 27.0005 8.66591C26.704 8.77743 26.4431 8.79823 26.3106 8.79823V0.798234ZM19.1317 6.33355C18.516 7.35694 17.0024 10.5755 15.2394 14.4105C13.4071 18.3959 11.1444 23.4082 8.94466 28.3132C6.74402 33.2203 4.60252 38.0289 3.01144 41.6101C2.21582 43.4008 1.55766 44.8851 1.09833 45.9218C0.868667 46.4402 0.688701 46.8467 0.566107 47.1237C0.50481 47.2622 0.457855 47.3683 0.426201 47.4399C0.410374 47.4757 0.398373 47.5028 0.390316 47.521C0.386288 47.5301 0.383246 47.537 0.381205 47.5416C0.380185 47.5439 0.379415 47.5457 0.378897 47.5469C0.378638 47.5474 0.378439 47.5479 0.378309 47.5482C0.378174 47.5485 0.378102 47.5486 4.0365 49.1661C7.6949 50.7835 7.69495 50.7834 7.69507 50.7831C7.69519 50.7829 7.69537 50.7825 7.69562 50.7819C7.69612 50.7808 7.69686 50.7791 7.69786 50.7768C7.69985 50.7723 7.70285 50.7656 7.70683 50.7566C7.71479 50.7386 7.72669 50.7116 7.74242 50.6761C7.77388 50.605 7.82063 50.4993 7.88171 50.3613C8.00389 50.0852 8.1834 49.6797 8.41259 49.1624C8.87097 48.1278 9.52801 46.6461 10.3224 44.8582C11.9112 41.2821 14.0487 36.4826 16.2442 31.5868C18.4407 26.689 20.6914 21.7035 22.508 17.7522C23.417 15.7751 24.2116 14.0692 24.8337 12.7675C25.1452 12.1159 25.4072 11.5785 25.6151 11.1654C25.719 10.9589 25.8046 10.793 25.8727 10.6649C25.9065 10.6014 25.9336 10.5517 25.9544 10.5143C25.9647 10.4959 25.9727 10.4819 25.9784 10.4718C25.9843 10.4616 25.987 10.4572 25.9867 10.4577L19.1317 6.33355Z" fill="white"/>
</svg>
