<svg width="140" height="140" viewBox="0 0 140 140" fill="none" xmlns="http://www.w3.org/2000/svg">
<path d="M78.6011 83.7322L67.2083 95.125H61.625V100.708L56.0417 106.292H50.4583V111.875L42.0833 120.25H33.7083V128.625L25.3333 137H8.58333L3 131.417V114.667L55.93 61.7367" stroke="white" stroke-width="5.25"/>
<path fill-rule="evenodd" clip-rule="evenodd" d="M137 44.875C137 67.9928 118.243 86.75 95.125 86.75C72.0072 86.75 53.25 67.9928 53.25 44.875C53.25 21.7544 72.0072 3 95.125 3C118.243 3 137 21.7544 137 44.875V44.875Z" stroke="white" stroke-width="5.25"/>
<path fill-rule="evenodd" clip-rule="evenodd" d="M114.865 64.6149L75.3851 25.1352C86.2838 14.2365 103.966 14.2365 114.868 25.1352C125.769 36.0338 125.766 53.7163 114.865 64.6149V64.6149Z" stroke="white" stroke-width="5.25"/>
<path d="M4.70312 129.714L51.2458 83.1711" stroke="white" stroke-width="5.25"/>
</svg>
