<svg width="1330" height="348" viewBox="0 0 1330 348" fill="none" xmlns="http://www.w3.org/2000/svg">
<rect x="271.981" y="82.804" width="29.879" height="29.879" transform="rotate(37.47 271.981 82.804)" stroke="#CDCDCD" stroke-width="4"/>
<circle cx="1173.5" cy="231.5" r="21.5" stroke="#DDDDDD" stroke-width="4"/>
<circle cx="316.5" cy="267.5" r="9.5" stroke="#DDDDDD" stroke-width="4"/>
<circle cx="60.5" cy="150.5" r="6.5" stroke="#DDDDDD" stroke-width="4"/>
<path d="M140.108 5L135.438 22.5805L154.109 26.2636L151.397 42.9281L169.918 46.8008" stroke="#D6D6D6" stroke-width="4"/>
<path d="M1311.21 272.127L1298.21 284.849L1312.38 297.559L1301.53 310.495L1315.47 323.292" stroke="#D6D6D6" stroke-width="4"/>
<path d="M1197.23 112.167L1220.89 128.723L1236.57 102.905L1259.93 116.041L1275.81 90.5498" stroke="#D6D6D6" stroke-width="4"/>
<path d="M156 211.951L168.16 221.464L177.266 208.124L189.365 215.802L198.569 202.643" stroke="#D6D6D6" stroke-width="4"/>
<path d="M10.8096 294.3L15.7199 321.194L43.4638 314.244L50.4508 338.638L78.112 332.041" stroke="#D6D6D6" stroke-width="4"/>
<rect x="1098.81" y="2.05327" width="28.2128" height="28.2128" transform="rotate(1.54722 1098.81 2.05327)" stroke="#D3D3D3" stroke-width="4"/>
<path d="M199.912 295.273L248 318.16" stroke="#DBDBDB" stroke-width="4"/>
<path d="M1064 314.95L1113.87 296.255" stroke="#DBDBDB" stroke-width="4"/>
<path d="M1079 95.2126L1113.8 135.526" stroke="#DBDBDB" stroke-width="4"/>
</svg>
