<svg width="56" height="68" viewBox="0 0 56 68" fill="none" xmlns="http://www.w3.org/2000/svg">
<rect x="4" y="30.7142" width="48" height="36.2857" fill="#FFC7F3"/>
<rect x="4" y="30.7142" width="48" height="36.2857" stroke="#E500B2" stroke-width="2"/>
<rect x="4" y="30.7142" width="48" height="36.2857" stroke="#E500B2" stroke-width="2"/>
<rect x="1" y="-1" width="54" height="9.69841" transform="matrix(1 0 0 -1 0 29.8413)" fill="#FFC7F3"/>
<rect x="1" y="-1" width="54" height="9.69841" transform="matrix(1 0 0 -1 0 29.8413)" stroke="#E500B2" stroke-width="2"/>
<rect x="1" y="-1" width="54" height="9.69841" transform="matrix(1 0 0 -1 0 29.8413)" stroke="#E500B2" stroke-width="2"/>
<path d="M26.9172 20.1429C26.9172 20.1429 6.60549 17.1353 10.4949 8.97165C14.3844 0.807966 28.1923 6.78177 26.9172 20.1429Z" stroke="#E500B2" stroke-width="2"/>
<path d="M28.0877 20.1429C28.0877 20.1429 49.5942 16.276 45.476 5.7798C41.3577 -4.71637 26.7376 2.96424 28.0877 20.1429Z" stroke="#E500B2" stroke-width="2"/>
<rect x="25" y="31.8413" width="7" height="34.0317" fill="url(#paint0_linear)"/>
<rect width="7" height="7.44444" transform="matrix(1 0 0 -1 25 29.7142)" fill="url(#paint1_linear)"/>
<defs>
<linearGradient id="paint0_linear" x1="28.5" y1="31.8413" x2="28.5" y2="65.8731" gradientUnits="userSpaceOnUse">
<stop stop-color="white"/>
<stop offset="1" stop-color="white" stop-opacity="0"/>
</linearGradient>
<linearGradient id="paint1_linear" x1="3.5" y1="0" x2="3.5" y2="7.44444" gradientUnits="userSpaceOnUse">
<stop stop-color="white"/>
<stop offset="1" stop-color="white" stop-opacity="0"/>
</linearGradient>
</defs>
</svg>
