<svg width="51" height="69" viewBox="0 0 51 69" fill="none" xmlns="http://www.w3.org/2000/svg">
<path d="M11 22.3079C11 12.9067 16.7674 4.48314 25.5 1.07026C34.2326 4.48314 40 12.9067 40 22.3079V49.9603H39.9922H39.9191H39.8459H39.7726H39.6991H39.6255H39.5518H39.4779H39.4039H39.3297H39.2555H39.1811H39.1065H39.0319H38.9571H38.8822H38.8072H38.7321H38.6568H38.5814H38.5059H38.4303H38.3546H38.2788H38.2028H38.1267H38.0506H37.9743H37.8979H37.8214H37.7448H37.6681H37.5912H37.5143H37.4373H37.3602H37.283H37.2057H37.1282H37.0507H36.9731H36.8954H36.8176H36.7398H36.6618H36.5837H36.5056H36.4274H36.349H36.2706H36.1922H36.1136H36.0349H35.9562H35.8774H35.7985H35.7196H35.6405H35.5614H35.4822H35.403H35.3237H35.2443H35.1648H35.0853H35.0057H34.926H34.8463H34.7665H34.6867H34.6068H34.5268H34.4468H34.3667H34.2866H34.2064H34.1261H34.0459H33.9655H33.8851H33.8047H33.7242H33.6437H33.5631H33.4824H33.4018H33.3211H33.2403H33.1595H33.0787H32.9978H32.9169H32.836H32.755H32.674H32.593H32.5119H32.4308H32.3497H32.2686H32.1874H32.1062H32.025H31.9437H31.8625H31.7812H31.6999H31.6186H31.5372H31.4559H31.3745H31.2931H31.2117H31.1303H31.0489H30.9675H30.8861H30.8046H30.7232H30.6418H30.5603H30.4789H30.3974H30.316H30.2345H30.1531H30.0717H29.9902H29.9088H29.8274H29.746H29.6646H29.5832H29.5018H29.4205H29.3391H29.2578H29.1765H29.0952H29.0139H28.9326H28.8514H28.7702H28.689H28.6078H28.5267H28.4456H28.3645H28.2835H28.2024H28.1214H28.0405H27.9596H27.8787H27.7978H27.717H27.6362H27.5555H27.4748H27.3941H27.3135H27.233H27.1525H27.072H26.9916H26.9112H26.8309H26.7506H26.6704H26.5902H26.5101H26.43H26.35H26.2701H26.1902H26.1104H26.0306H25.9509H25.8713H25.7917H25.7122H25.6328H25.5534H25.4741H25.3949H25.3157H25.2366H25.1576H25.0787H24.9998H24.9211H24.8424H24.7637H24.6852H24.6068H24.5284H24.4501H24.3719H24.2938H24.2157H24.1378H24.06H23.9822H23.9045H23.827H23.7495H23.6721H23.5948H23.5177H23.4406H23.3636H23.2867H23.2099H23.1333H23.0567H22.9802H22.9039H22.8276H22.7515H22.6755H22.5995H22.5237H22.4481H22.3725H22.297H22.2217H22.1465H22.0714H21.9964H21.9216H21.8468H21.7722H21.6978H21.6234H21.5492H21.4751H21.4011H21.3273H21.2536H21.18H21.1066H21.0333H20.9602H20.8871H20.8143H20.7415H20.6689H20.5965H20.5242H20.452H20.38H20.3081H20.2364H20.1648H20.0934H20.0222H19.951H19.8801H19.8093H19.7386H19.6682H19.5978H19.5277H19.4577H19.3878H19.3181H19.2486H19.1793H19.1101H19.0411H18.9722H18.9036H18.8351H18.7667H18.6986H18.6306H18.5628H18.4952H18.4277H18.3605H18.2934H18.2265H18.1598H18.0932H18.0269H17.9607H17.8948H17.829H17.7634H17.698H17.6328H17.5677H17.5029H17.4383H17.3739H17.3096H17.2456H17.1818H17.1181H17.0547H16.9915H16.9285H16.8657H16.8031H16.7407H16.6785H16.6165H16.5548H16.4932H16.4319H16.3707H16.3098H16.2492H16.1887H16.1284H16.0684H16.0086H15.949H15.8897H15.8306H15.7717H15.713H15.6545H15.5963H15.5383H15.4806H15.4231H15.3658H15.3088H15.2519H15.1954H15.139H15.083H15.0271H14.9715H14.9162H14.861H14.8062H14.7515H14.6972H14.6431H14.5892H14.5356H14.4822H14.4291H14.3762H14.3236H14.2713H14.2192H14.1674H14.1158H14.0645H14.0135H13.9627H13.9122H13.862H13.812H13.7623H13.7129H13.6638H13.6149H13.5663H13.5179H13.4699H13.4221H13.3746H13.3274H13.2804H13.2338H13.1874H13.1413H13.0955H13.05H13.0048H12.9598H12.9152H12.8708H12.8267H12.783H12.7395H12.6963H12.6534H12.6108H12.5685H12.5265H12.4849H12.4435H12.4024H12.3616H12.3211H12.281H12.2411H12.2016H12.1623H12.1234H12.0848H12.0465H12.0085H11.9709H11.9335H11.8965H11.8598H11.8234H11.7874H11.7516H11.7162H11.6811H11.6463H11.6119H11.5778H11.544H11.5106H11.4775H11.4447H11.4123H11.3801H11.3484H11.3169H11.2859H11.2551H11.2247H11.1946H11.1649H11.1355H11.1065H11.0778H11.0495H11.0215H11V22.3079Z" fill="#C4CDFF" stroke="#3733E8" stroke-width="2"/>
<path d="M1 56.3245L11 49.6192V27.7152L2.5 45.149L1 56.3245Z" fill="#C3CDFF" stroke="#3733E8" stroke-width="2" stroke-linejoin="round"/>
<path d="M50 56.3245L40 49.6192V27.7152L48.5 45.149L50 56.3245Z" fill="#C3CDFF" stroke="#3733E8" stroke-width="2" stroke-linejoin="round"/>
<circle cx="26" cy="24" r="7" fill="url(#paint0_linear)"/>
<path d="M13.5 11.1755H37.5" stroke="#3733E8"/>
<path d="M13.5 11.1755H37.5" stroke="#3733E8"/>
<path d="M13.5 11.1755H37.5" stroke="#3733E8"/>
<path d="M12 37.5497L39.5 37.5497" stroke="#3733E8"/>
<path d="M12 37.5497L39.5 37.5497" stroke="#3733E8"/>
<path d="M12 37.5497L39.5 37.5497" stroke="#3733E8"/>
<path d="M17.2547 55.4305L17.2546 67.5002" stroke="#3733E8" stroke-width="2" stroke-linecap="round" stroke-linejoin="round"/>
<path d="M26.2547 53.6424L26.2546 65.7121" stroke="#3733E8" stroke-width="2" stroke-linecap="round" stroke-linejoin="round"/>
<path d="M35.2547 55.4305L35.2546 67.5002" stroke="#3733E8" stroke-width="2" stroke-linecap="round" stroke-linejoin="round"/>
<defs>
<linearGradient id="paint0_linear" x1="26" y1="17" x2="26" y2="33.3333" gradientUnits="userSpaceOnUse">
<stop stop-color="white"/>
<stop offset="1" stop-color="white" stop-opacity="0"/>
</linearGradient>
</defs>
</svg>
