<svg width="72" height="64" viewBox="0 0 72 64" fill="none" xmlns="http://www.w3.org/2000/svg">
<rect x="1" y="1" width="70" height="12" fill="#B5DBFF" stroke="#0B8AFF" stroke-width="2"/>
<rect x="1" y="51" width="70" height="12" fill="#B5DBFF" stroke="#0B8AFF" stroke-width="2"/>
<rect x="12" y="13" width="48" height="38" fill="#B5DBFF" stroke="#0B8AFF" stroke-width="2"/>
<path fill-rule="evenodd" clip-rule="evenodd" d="M26 42.5V22.5C26 21.1193 24.8807 20 23.5 20C22.1193 20 21 21.1193 21 22.5V42.5C21 43.8807 22.1193 45 23.5 45C24.8807 45 26 43.8807 26 42.5ZM23.5 19C21.567 19 20 20.567 20 22.5V42.5C20 44.433 21.567 46 23.5 46C25.433 46 27 44.433 27 42.5V22.5C27 20.567 25.433 19 23.5 19ZM39 42.5V22.5C39 21.1193 37.8807 20 36.5 20C35.1193 20 34 21.1193 34 22.5V42.5C34 43.8807 35.1193 45 36.5 45C37.8807 45 39 43.8807 39 42.5ZM36.5 19C34.567 19 33 20.567 33 22.5V42.5C33 44.433 34.567 46 36.5 46C38.433 46 40 44.433 40 42.5V22.5C40 20.567 38.433 19 36.5 19ZM52 22.5V42.5C52 43.8807 50.8807 45 49.5 45C48.1193 45 47 43.8807 47 42.5V22.5C47 21.1193 48.1193 20 49.5 20C50.8807 20 52 21.1193 52 22.5ZM46 22.5C46 20.567 47.567 19 49.5 19C51.433 19 53 20.567 53 22.5V42.5C53 44.433 51.433 46 49.5 46C47.567 46 46 44.433 46 42.5V22.5Z" fill="url(#paint0_linear)"/>
<rect x="21" y="20" width="5" height="23" rx="2.5" fill="url(#paint1_linear)"/>
<rect x="34" y="20" width="5" height="23" rx="2.5" fill="url(#paint2_linear)"/>
<rect x="47" y="20" width="5" height="23" rx="2.5" fill="url(#paint3_linear)"/>
<defs>
<linearGradient id="paint0_linear" x1="36.5" y1="19" x2="36" y2="52" gradientUnits="userSpaceOnUse">
<stop stop-color="#1D72F1"/>
<stop offset="1" stop-color="white" stop-opacity="0"/>
</linearGradient>
<linearGradient id="paint1_linear" x1="23.5" y1="20" x2="23.5" y2="43" gradientUnits="userSpaceOnUse">
<stop stop-color="white"/>
<stop offset="0.666673" stop-color="white" stop-opacity="0"/>
</linearGradient>
<linearGradient id="paint2_linear" x1="36.5" y1="20" x2="36.5" y2="43" gradientUnits="userSpaceOnUse">
<stop stop-color="white"/>
<stop offset="0.666673" stop-color="white" stop-opacity="0"/>
</linearGradient>
<linearGradient id="paint3_linear" x1="49.5" y1="20" x2="49.5" y2="43" gradientUnits="userSpaceOnUse">
<stop stop-color="white"/>
<stop offset="0.666673" stop-color="white" stop-opacity="0"/>
</linearGradient>
</defs>
</svg>
