<svg width="65" height="65" viewBox="0 0 65 65" fill="none" xmlns="http://www.w3.org/2000/svg">
<path fill-rule="evenodd" clip-rule="evenodd" d="M2 1C1.44772 1 1 1.44772 1 2V51C1 51.5523 1.44772 52 2 52H10.7336C9.99689 56.2474 8.38164 60.7193 5 63.5C12.8218 61.9356 17.2906 56.6758 19.7764 52H63C63.5523 52 64 51.5523 64 51V2C64 1.44772 63.5523 1 63 1H2Z" fill="#FFD847"/>
<path d="M10.7336 52L11.7188 52.1709L11.9219 51H10.7336V52ZM5 63.5L4.36486 62.7276L5.19611 64.4806L5 63.5ZM19.7764 52V51H19.1755L18.8934 51.5306L19.7764 52ZM2 2V2V0C0.895431 0 0 0.89543 0 2H2ZM2 51V2H0V51H2ZM2 51H2H0C0 52.1046 0.89543 53 2 53V51ZM10.7336 51H2V53H10.7336V51ZM5.63514 64.2724C9.29338 61.2642 10.9676 56.5027 11.7188 52.1709L9.74827 51.8291C9.02624 55.9922 7.4699 60.1743 4.36486 62.7276L5.63514 64.2724ZM18.8934 51.5306C16.491 56.0496 12.2298 61.0342 4.80388 62.5194L5.19611 64.4806C13.4138 62.837 18.0902 57.3021 20.6593 52.4694L18.8934 51.5306ZM63 51H19.7764V53H63V51ZM63 51V53C64.1046 53 65 52.1046 65 51H63ZM63 2V51H65V2H63ZM63 2H65C65 0.89543 64.1046 0 63 0V2ZM2 2H63V0H2V2Z" fill="#FF698D"/>
<path fill-rule="evenodd" clip-rule="evenodd" d="M18.1499 17.1509C15.2331 19.9635 15.2916 24.4614 18.2806 27.1972L21.974 30.5777L21.9738 30.5778L32.3216 40.0489L32.3217 40.0488L32.3218 40.0489L42.8846 29.8634L42.8845 29.8633L46.2253 26.6419C49.0137 23.9531 48.9578 19.6532 46.1003 17.0378C43.2429 14.4224 38.666 14.482 35.8775 17.1708L32.5368 20.3922L28.8434 17.0118C25.8544 14.276 21.0667 14.3383 18.1499 17.1509Z" fill="url(#paint0_linear)"/>
<path d="M17.943 27.5661L21.2445 30.5878L21.2443 30.5879L21.6363 30.9467L31.984 40.4178L32.0523 40.4803L32.33 40.7355L32.6688 40.4088L43.2316 30.2233L43.6163 29.8524L43.6162 29.8523L46.5723 27.0018C49.5684 24.1128 49.5081 19.4791 46.4379 16.669C43.3857 13.8753 38.509 13.9388 35.5305 16.8109L32.5278 19.7063L29.181 16.643C25.9972 13.7289 20.9097 13.7951 17.8028 16.791C14.6784 19.8038 14.7413 24.6356 17.943 27.5661Z" stroke="url(#paint1_linear)"/>
<defs>
<linearGradient id="paint0_linear" x1="32.1403" y1="15" x2="32" y2="45.5" gradientUnits="userSpaceOnUse">
<stop stop-color="white"/>
<stop offset="1" stop-color="white" stop-opacity="0"/>
</linearGradient>
<linearGradient id="paint1_linear" x1="32.1403" y1="15" x2="32.1403" y2="40.0489" gradientUnits="userSpaceOnUse">
<stop stop-color="#FF7990"/>
<stop offset="1" stop-color="#FF003D"/>
</linearGradient>
</defs>
</svg>
